/* XPM */
static char *nakam128[] = {
/* columns rows colors chars-per-pixel */
"128 128 81 1 ",
"  c #6CC7B3333E33",
". c #6EF3B4D0420E",
"X c #72C1B5D94623",
"o c #7455B87B4753",
"O c #74A4B6E648F2",
"+ c #78F8B6B94DCC",
"@ c #747AB8B54953",
"# c #7937B9F04EA2",
"$ c #7BA0B6855320",
"% c #7C6ABB2B5374",
"& c #7D37B60E5801",
"* c #7F6EBD45589D",
"= c #80F1BB0F56BA",
"- c #8075B81E5826",
"; c #82BBBC925B72",
": c #894DBD505F25",
"> c #86ABBDF76172",
", c #8A31BE4764AE",
"< c #8BF5BE3C6A0A",
"1 c #913CBF476FE8",
"2 c #8445C0F25E17",
"3 c #8728C1EB621E",
"4 c #89F3C2616517",
"5 c #8E32C3AC6AAF",
"6 c #918BC4746DC5",
"7 c #9014C8616D6E",
"8 c #8E42C132711B",
"9 c #948CC4C17364",
"0 c #995CC54D75B8",
"q c #9590C98874BC",
"w c #9911CACD7790",
"e c #9726C53D7B70",
"r c #9A99C58D7C6F",
"t c #96BFCA3D7B64",
"y c #9AC9CB407BDA",
"u c #A071C8847D59",
"i c #9D6EC5D381F6",
"p c #9E8BCC2D8183",
"a c #A0C8C76B824D",
"s c #A203CD8B848E",
"d c #A503CDF889A7",
"f c #A3D5D13B87A2",
"g c #A689D25B8B52",
"h c #A93BD2948DFA",
"j c #AD34D4C593C3",
"k c #AFC6D70E987F",
"l c #B0DAD69196D1",
"z c #B2C1D7049B01",
"x c #B425D97B9CA3",
"c c #B990D856A165",
"v c #B704D997A13F",
"b c #BAB2DC03A54F",
"n c #BE67DD80AABD",
"m c #C1C6DF79AE09",
"M c #C575DFBCB274",
"N c #C1CAE153AF20",
"B c #C58DE1FFB39A",
"V c #C908E38CB785",
"C c #CC71E4F9BC7A",
"Z c #D012E70DC193",
"A c #D235E780C469",
"S c #D46CE984C6D3",
"D c #D6A8EA7CCAC7",
"F c #D9E1EC17CDEB",
"G c #DDCCEE31D339",
"H c #E02FEF6CD97B",
"J c #DF26F086D5BF",
"K c #E117EFA8D71D",
"L c #E281F04BDA25",
"P c #E114F0D4D729",
"I c #E4D5F220DC96",
"U c #E7E2F411E120",
"Y c #EB9CF57EE523",
"T c #EF52F741EA10",
"R c #EFDDF8A7EB4F",
"E c #F0E6F826EC02",
"W c #F290F949EE55",
"Q c #F6F1FB4BF40B",
"! c #F97DFCA0F736",
"~ c #FFD8FFE2FFC1",
"^ c None",
/* pixels */
"^^^^^^^^^^^^^^^^^^^^^^^^^^^^^^^^^^^^^^^^^^^^^^^^^^^^^^^748722**%*%*24qq9i^^^^^^^^^^^^^^^^^^^^^^^^^^^^^^^^^^^^^^^^^^^^^^^^^^^^^^^",
"^^^^^^^^^^^^^^^^^^^^^^^^^^^^^^^^^^^^^^^^^^^^^^^^^^77,;%@.ooo.o@ooooo@.XXO%-,00^^^^^^^^^^^^^^^^^^^^^^^^^^^^^^^^^^^^^^^^^^^^^^^^^^",
"^^^^^^^^^^^^^^^^^^^^^^^^^^^^^^^^^^^^^^^^^^^^^^01;%XX.oo@@@@@@@@@@@@@@@@@XOOXOO+=:6^^^^^^^^^^^^^^^^^^^^^^^^^^^^^^^^^^^^^^^^^^^^^^",
"^^^^^^^^^^^^^^^^^^^^^^^^^^^^^^^^^^^^^^^^^^^0,+XXXX@@@@@@o@@@@@@@@@@@@@@@+OOOOOXXXO+-<^^^^^^^^^^^^^^^^^^^^^^^^^^^^^^^^^^^^^^^^^^^",
"^^^^^^^^^^^^^^^^^^^^^^^^^^^^^^^^^^^^^^^^^,+XX.XO@@@@@@@@@@@@@@@@@@@o@@@@OOOOOOOXOOXXX+;u^^^^^^^^^^^^^^^^^^^^^^^^^^^^^^^^^^^^^^^^",
"^^^^^^^^^^^^^^^^^^^^^^^^^^^^^^^^^^^^^^e>+XXXOXXO@@@@@@@@@@@@@@@@@@@@@@@@@@@XOOOOOXOOXO X=6^^^^^^^^^^^^^^^^^^^^^^^^^^^^^^^^^^^^^^",
"^^^^^^^^^^^^^^^^^^^^^^^^^^^^^^^^^^^^6=OO@@OOXXOO@@@@@@@@@@@@@@@@@@@@@@@@@@@@@OOXOOOOOOOXX =:^^^^^^^^^^^^^^^^^^^^^^^^^^^^^^^^^^^^",
"^^^^^^^^^^^^^^^^^^^^^^^^^^^^^^^^^^6+XX@@+XOOOOXO@@@@@@@@o@@@@@@@@@@@@@@@@@@@@@X+OOOOOOOOXX X+,^^^^^^^^^^^^^^^^^^^^^^^^^^^^^^^^^^",
"^^^^^^^^^^^^^^^^^^^^^^^^^^^^^^^^q&.XOXO+OOXXXXXOX@@@OOO+=oXo@@@@@@@o@@@@@@@@@@@@@@@@o+ooXOOOX.+<^^^^^^^^^^^^^^^^^^^^^^^^^^^^^^^^",
"^^^^^^^^^^^^^^^^^^^^^^^^^^^^^^^;X.XXOXO@O++++X+O@OOOOO rIBq@.X@@@@@@@@@@@@@@@@@@@@@oXXo+OOOOOXX.=^^^^^^^^^^^^^^^^^^^^^^^^^^^^^^^",
"^^^^^^^^^^^^^^^^^^^^^^^^^^^^^6+XO+OOO+XX+X+XX++XOo+XOOOM~~!Fk2.X@@@@@@@@@@@@@@@@@@@@@@X@X-OOOOOOXO4^^^^^^^^^^^^^^^^^^^^^^^^^^^^^",
"^^^^^^^^^^^^^^^^^^^^^^^^^^^^=XO@OOOOOXX++OXXX+XOOo+oOX,E~~~~~RV5X@@@@@@@@@@@@@@@@@@@@@@@O XOOXXOooo+r^^^^^^^^^^^^^^^^^^^^^^^^^^^",
"^^^^^^^^^^^^^^^^^^^^^^^^^^6+XO@@O@XOOOXO@OO+OOO+OO+OO.z~~~~~~~QyX@@@@@@@@@@@@@@@@@@@@@@@OOOO@@OOOOXXo1^^^^^^^^^^^^^^^^^^^^^^^^^^",
"^^^^^^^^^^^^^^^^^^^^^^^^^;Xo@O@+@+OOOOO+OX+$XXOXOOOOX+L~~~~~~~D%@OOX@@@@@@@@@@@@@@@@@@@@OOoo@@OOOO+Xo =^^^^^^^^^^^^^^^^^^^^^^^^^",
"^^^^^^^^^^^^^^^^^^^^^^^^%X+o+@O@@OOOOOO+O.pGh-X.OOOO.i!~~~~~~!jOOOO@@O@@@@@@@@@@o@@@@@@@+ooo@@@@oOOXoOX-u^^^^^^^^^^^^^^^^^^^^^^^",
"^^^^^^^^^^^^^^^^^^^^^^y+XX@XoXo+OOOOOOOOOOA~~Ym9+..OXC~~~~~~~U3OXXOO+OOO@X@@@@@@@@@@@@@ooo+o@@@@oo+XOoOX+5^^^^^^^^^^^^^^^^^^^^^^",
"^^^^^^^^^^^^^^^^^^^^^0+@X@@X@@@OO@O+OOOO.8W!~~~QFd= 3W~~~~~~~nOOOXOOOXOOOOoO@@@@@@@@@@@@@@@@@@@@@@@@@@@@oo2^^^^^^^^^^^^^^^^^^^^^",
"^^^^^^^^^^^^^^^^^^^^8O@X@O+@+X@OO@OOOO@OOn!!~~~~~~YbV~~~~~~~W0OXXOOXX+OOXXOO+X@@@@@@@@@@@@@@@@@@@@@@@@@@@oo%^^^^^^^^^^^^^^^^^^^^",
"^^^^^^^^^^^^^^^^^^^<XOO+OOOOOOOOOOOOOOOO&U~~~~~~~~~~~~~~~~~~S$XXOXOXOOXO@+OXX+XOXo@@@@@@@@@@@@@@@@@@@@@@@@@o*^^^^^^^^^^^^^^^^^^^",
"^^^^^^^^^^^^^^^^^^6XOXO@+@OOOOO@@OO@O$OOd!~~~~~~~~~~~~~~~~~!dXXXXOX+XXOOXOOooXXo+XX@@@@@@@@@@@@@@@@@@@@@@@@oo*^^^^^^^^^^^^^^^^^^",
"^^^^^^^^^^^^^^^^^6OOOOXOX+OOOOO++@OOOO+$D~~~~~~~~~~~~~~~~~~T< XXXX@X+@OXOOOXX+X+XoX@Ooo@@@@@@@@@@@@@@@@@@@@@@.%^^^^^^^^^^^^^^^^^",
"^^^^^^^^^^^^^^^^0OXXOO@XoOO@@O+@OO@$$O.9Q~~~~~~~~~~~~~~~~~~~Ub5X oXXXXX+XoX+XoX@+X+XX+OX@X@@@@@@@@@@@@@@@@@@@@.%^^^^^^^^^^^^^^^^",
"^^^^^^^^^^^^^^^u+XO+OXX+@+OOO@O@@@@O+OXn~!~~~~~~~~~~~~~~~~~~~~QAd$XXXoX@+XXooOXXXo+XOOOXOO@@O@@@@@@@o@@@@@@@@@@o5^^^^^^^^^^^^^^^",
"^^^^^^^^^^^^^^^$X+OX@+@@OoO@OOOOOO+OOO;U~~~~~~~~~~~~~~~~~~~~~~~~~F%X+X+XXOOX+XX+OXXOOXO@OO@@@XXX@@@@@@@@@@@@@@@o@^^^^^^^^^^^^^^^",
"^^^^^^^^^^^^^^;X@OoX@@@O@Oo@+@@+@+OO@Xh!~~~~~~~~~~~~~~~~~~~~~~~~~Q5 OOOXOXOOXOO@O+XX+X@X+XOOXOOOo@@@@@@@@@@@@@@@X$^^^^^^^^^^^^^^",
"^^^^^^^^^^^^^<XXOo++oX+o+@XoXoooOO@+X$S~~~~~~~~~~~~~~~~~~~~~~~~~~~s OXOOOO+XoXOXX@@XXOXOX@XOOOOO@@X@@.@@@@@@@@@@@X=^^^^^^^^^^^^^",
"^^^^^^^^^^^^rO+XOOXo+X+oo+o+oXo+O@O@@@wNT~~~~~~~~~~~~~~~~~~~~~~~~~c.OOOXXXXXX+Xo+X+XOOXOOOOOOXOO.@XX*w%..@@o@@@@@oX,^^^^^^^^^^^^",
"^^^^^^^^^^^^$XX+@Oo+@XX@X@X@o+ooOO@@@@o.3F~~~~~~~~~~~~~~~~~~~~~~~~B.OOOO@+XOOOOXXOoXXOOXXOXOOOOO@@@.k!Px3o.o@@@@@OX+^^^^^^^^^^^^",
"^^^^^^^^^^^1 ++@oo+ooXo@o+o+++Xo@@@@@@@@.2P~~~~~~~~~~~~~~~~~~~~~~~SOOOOOX+XoXOX+oXXXXOX@XO@X+XOOOoXOF~~~WCp*o@@@OO+o-^^^^^^^^^^^",
"^^^^^^^^^^rOX+o@+XoX+o@@o@XoXXo+@@@@@@@@@.f~~~~~~~~~~~~~~~~~~~~~~~L%OOXOoX+XXOOOX++X+XXX@+@@OOOOOooq!~~~~~~P5X@XXO+XX<^^^^^^^^^^",
"^^^^^^^^^^-ooo+Xo++o+X+@@++XooX@@@@@@@@@@.2T~~~~~~~~~~~~~~~~~~~~~~W,XOOOXoXO@XoOoOO@XX.XXOOOOO+OOOXB~~~~~~~I=XXoOoXXXO^^^^^^^^^^",
"^^^^^^^^^, oX+@@X@XXooX@oXoX+o+@@@@@@@@@@o%P~~~~~~~~~~~~~~~~~~~~~~!q.OOO+XOO+X@XX@OXowy+..@@OOOOOX;T~~~~~~~b o+@XX+XXX=^^^^^^^^^",
"^^^^^^^^^OXOOOOOOOOOO.OO@@O&@@OO@@@@@@@@@@%U!~~~~~~~~~~~~~~~~~~~~~~h.XOOOOOOX@@X@@@X%G!Gz>X.XXXOO l~~~~~~~E,XXOXOOXOX+ 1^^^^^^^^",
"^^^^^^^^>XOOOOOO@OOO@@@OOO..OO@@@@@@@@@@@.8Q!!~~~~~~~~~~~~~~~~~~~~~b.++O@OOO@X@@XX@.e!~~~TMy$.XX =F~~~~~~~AXXOOOOXXOXXX-^^^^^^^^",
"^^^^^^^a+XXOO+OOOOOO@OOO@@&.OO.@@@@@@@@@@.vQ~~~~~~~~~~~~~~~~~!~~~~~ZOO+OOO@OX@@X@@@XV~~~~~~!Hx3X 0!~~~~~~!a.OXOXXOXO- X 1^^^^^^^",
"^^^^^^^>XXOO+OOOOOOOOO@O@@@@@@@@@@@@@@@@@&HQ~~~~~~~~~~~~~~~~~~~~~!~H$OOO@OOOX@ooX@.:T~~~~~~~~~EV0V~~~~~~~L$XXOXOXOOOXXX -^^^^^^^",
"^^^^^^i+OO+@X+XX@@@O@.@@@OOO@O@@@@@@@@@@.tQ~~~~~~~~~~~~~~~~~~~~~~~~Y;OOOOOOXX@OX@@.k~~~~~~~~~~~~Q~~~~~~~~c.XXOXXOO - -X- ,^^^^^^",
"^^^^^^,XOOO@Oo@@@@@@@@@@OOO@O@@@@@@@@@@@oV~~~~~~~~~~~~~~~~~~~~~~~~~Q6XOOXOX+XXo+@O$G~~~~~~~~~~~~~~~~~~~~W>.XOXOOOO-X  X X-^^^^^^",
"^^^^^^+OO+@Ooo+X@@@@@@.@O@@@@@@@@@@@O@@.3R~~~~~~~~~~~~~~~~~~~~~~~~~!sX+OX@oXX+XO+.y!~~~~~~~~~~~~~~~~~~~~C..XXXOXOXX -- -OO1^^^^^",
"^^^^^1XO+X+X++@@@@@@@@@@@@@@@@@@@@@O@@@.k~~~~~~~~~~~~~~~~~~~~~~~~~~~x.XXOXX+OO@+OXV~~~~~~~~~~~~~~~~~~~~~Iz,X XOXOOX- XXXOX:^^^^^",
"^^^^^&..@O@+@+@@@@@@@@@@@@@@@@@@@@@@@@o#J~~~~~~~~~~~~~~~~~~!~~~~~~~~M.XOOOOO+o@@@>T~~~~~~~~~~~~~~~~~~~~~~~YBw+ XXXOOOOOOOO-^^^^^",
"^^^^e&O&O@@@@@@+@@@@@@@@@@@@@@@@@@@@@@.w!~~~~~~~~~~~~~~~~~~~~~~~~~~~DOXXOOOOOO@+.k~~~~~~~~~~~~~~~~~~~~~~~~~~!Fl;.XXoOOO+=OO:^^^^",
"^^^^<XOOO+@@O++@@@@@@@@@@@@@@@@@@@@@@@.V~~~~~~~~~~~~~~~~~~~~~~~~~~~~L&X+OOX+OO@X&J~~~~~~~~~~~~~~~~~~~~~~~~~~!~~Im0-oOOOO OO-^^^^",
"^^^^&OOO+@O+O@@@@@@@@@@@@@@@@@@@@@@@@o2T~~~~~~~~~~~~~~~~~~~~~~~~~~~~W<XXO@X@XO@X*S!~~~~~~~~~~~~~~~~~~~~~~~~~~~~~~QM+OOOOOOX 0^^^",
"^^^iXO$O@@@@@@@@@@@@@@@@@@@@@@@@@@@@@.k~~~~~~~~~~~~~~~~~~~~~~~~~~~~~!r.+OXOXo@@@@@yF~~~~~~~~~~~~~~~~~~~~~~~~~~~~~~cXOOOXXXO.:^^^",
"^^^<.&OO@@&@@@@@@@@@@@@@@@@@@@@@@@@@o@J~~~~~~~~~~~~~~~~~~~~~~~~~!~~~~z.XOOOO@@@@@@.@V~~~~~~~~~~~~~~~~~~~~~~~~~~~~E4.OOOO+OX.+^^^",
"^^^&.OOO$@@@@@@@@@@@@@@@@@@@@@@@@@@@.wQ~~~~~~~~~~~~~~~~~~~~~~~~~~~~~~MXOOXOX@@@@@@@o*P~~~~~~~~~~~~~~~~~~~~~~~~~~~CX@OOOOXXXXX^^^",
"^^i+O&OO@@@@@O@O@@@@@@@@@@@@@@@@@@@@XB~~~~~~~~~~~~~~~~FF~~~~!~~~~~~~~S+XOXO@@@@@@@@@ k~~~~~~~~~~~~~~~~~~~~~!~~~~!y.@O+OOXXXXX5^^",
"^^8XOOO@&@@@@@@@@@@@@@@@@@@@@@@@@@@o2R~~~~~~~~~~~~~~~!yn~~~~~~~~~~~~~L%XXXX@@@@@@@@@.7Q~~~~~~~~~~~~~~~~~~~~~~~~~G%o@+XXXXXXXX=^^",
"^^>@++OO@@@@&@@@&@@@@@@@@@@@@@@@@@@.j!!~~~~~~~~~~~~~~G@k~~~~~~~~~~~~~W,XOX@@@@@@@@@@.5Q~~~~~~~~~~~~~~~~~~~!~~~~~k.@@oo+oX+oXO+^^",
"^^&XOO+O@@@.@@@@.@&@@@@@@@@@@@@@@@o@F~~~~~~~~~~~~~~~~k y!~~~~~~~~~~~~!e OXO@@@@@@@@@.w!~~~~~~~~~~~~~~~~~~~~~~~~T2X@O+Xo@@XoXOO^^",
"^^@+OOOO@@@&@@@@@@.@@@@@@@@@@@@@@@.q!~~~~~~~~~~~~~~~Y2.5W~~~~~~~~~~~~~j OO@@@@@@@@@@.n~~~~~~~~~~~~~~~~~~~~~~~~~BXOO@oo+o@+X+@O<^",
"^e.OOO$@OO&@@@@@@@&@@@@@@@@@@@@@oooN~~~~~~~~~~~~~~~~B.o*Y~~~~~~~~~~~~~mXO@@@@@@@@@@o*U~~~~~~~~~~~~~~~~~~~~~~~~QqX@+oXo+Xo+OXOX3^",
"^1OOOOOOO..@@@@@@@@@@@@@@@@@@@@@oo2I~~~~~~~~~~~~~~~Qq.XXF~~~~~~~~~~~~~AOoo@@@@@@@@@.h~~~~~~~~~~~~~~~~~~~EPGT~~D@o@+XO@@@XOOOXX%^",
"^<.OOOOOO&OO@@@$@@@@@@@@@@@@@@@@o h~~~~~~~~~~~~~~~~D@XX.M~~~~~~~~~~~~~L$O@@@@@@@@@o@F~~~~~~~~~~~~~~~~~Rx2#+2fShXOOOO@ooXO@OOOX%^",
"^*OOOOO$OOOOO&@@@@@@@@@@@@@@@@@@@@S~~~~~~~~~~~~~~~~j.OOXz~~~~~~~~~~~~~T>XO@@@@@@@@.q!~~~~~~~~~~~~~~~~Yq..oooXo@@@OOO+X+Xo+XOOXO^",
"^$@@O@+@@OO@O@O@@@@@@@@@@@@@@@@@.7Q~~~~~~~~~~~~~~~Y*X@@Xs~~~~~~~~~~~~~!qXO@@@@@@@@.B~~~~~~~~~~~~~~~~!f.@@@@@@@o@@oo+@@o+X@+XXXX9",
"d&OOO@@@OOO$OOOO@@@@@@@@@@@@@@@@.N~~~~~~~~~~~~~~~~n.@@OX6W~~~~~~~~~~~~~hXO@o@@@@@o3T~~~~~~~~~~~~~~~~SX@@@@@@@@@@@@o@@oo@+OoXoO.:",
"i+OOOO@OOOOOOOXX@@@@@@@@@@@@@@@.*U~~~~~~~~~~~~~~~Q7X@XXX;I~~~~~~!~~~~!~n OXX+@O@@.k~~~~~~~~~~~~~~~~~f.@@@@@@@@@@@@@@@@o@oOXoXXX1",
"iOOOOOO@OOOOOX@@@@@@@@@@@@@@@@@.f!~~~~~~~~~~~~~~~Soo@@X.@D~~~~~~~~~~~~~ZXO@+ooX+@@G~~~~~~~~~~~~~~~~I%@@@@@@@@@@@@@@@@@@@oX+XOXX<",
"1++OOOX@XX@X@@X@.@&.@@@@@@@@@@.@A~~~~~~~~~~~~~~~!f.oXoX@XC~~~~!~~~~~~~~L%Xo+XoX@.y!~~~~~~~~~~~~~~~~b.@@@@@@o@@@@@@@@@@@@OOOOOOX,",
"1XOOOO@OXX@X@X@@@@.@@@@@@@@@@@.8W~~~~~~~~~~~~~~~I*oOX@OO b~~~~~~~~~~~~~T:oo@@+@oXC~~~~~~~~~~~~~~~~Q7.@@@@@@@@@@@@@@@oo@@OOOOOOX,",
"1OOOOXXO@@@@@@X@@@@@@@@@@@@@@@.v~~~~~~~~~~~~~~~~b.o@X@OO u!~~~~~~~~~~~~QqXXXXo@X4R~~~~~~~~~~~~~~~~S@@@@@@@@@@@@@@@@@o+ooOOOOOOX:",
"1+OOOOXX@XX@X@@@@.@@@@@@@@@@@@&H~~~~~~~~~~~~~~~W4X@@XOOOX6!~~~~~~~~~~~~~d X+XXoXx~~~~~~~~~~~~~~~~!g.@@@@@@@@@@@@@@@@oo+ooOXOXOo:",
"8OOOOO@@@@@.@O@.@o@@@@@@@@@@@oy!~~~~~~~~~~~~~~~AXXoXXoo+X;E~~~~~~~~~~~~~c.XX+OX%I~~~~~~~~~~~~~~~~Y*o@@@@@@@@@@@@@@@@@@@@@@OXOXX>",
"8.OOOOO..O@O.O@O.@@@@@@@@@@@ooC~~~~~~~~~~~~~~~!yXo+OXooXX%G~~~~~~~~~~~~~MXXOXO.s!~~~~~~~~~~~~~~~~n.@@@@@@@@@@@@@@@@@@@@@@XOXOOX>",
"e&OOOOO@@@OO@@OO@@@@@@@@@@@@o3E~~~~~~~~~~~~~~~J+oooOoooXXXC~~~~~~~~~~~~~L$O+@o@A~~~~~~~~~~~~~~~~Q5o@@@@@@@@@@@@@@@@@@@@@@OXOOOX>",
"e..&OO@.@@OOOOOO@@@@@@@@@@@@ x~~~~~~~~~~~~~~~~x.oXX+ooOOO c~~~~~~~~~~~~~T>XOo.5Q~~~~~~~~~~~~~~~~S@o@@@o@@@@@OXO@o@@@@@@@OOOOOX.4",
"e.OOOOO&@OOOOO.OXX@@@@@@@@@o%J~~~~~~~~~~~~~~~E2XoXooO@OOO.g~~~~~~~~~~~~~WqXO@ b~~~~~~~~~~~~~~~~~h.@@@@@@@@@@OOX@X@@@@OOOOX+XOOX5",
"i&&OOOOOOOX$OOOO@@@@@@@@@@@.w!~~~~~~~~~~~~~~~VXoo++oo@OXXXqQ~~~~~~~~~~~~~s.Oo*U~~~~~~~~~~~~~~~~Y*.@@@@@@@@@@XOO@@OOXOXXOOOXOOXX5",
"e&.OOOOOX$XOOOXO@@@@@@@@@@@.C~~~~~~~~~~~~~~~!wooo+XooooXXX:E~~~~~~~~~~~~~c.@.f~~~~~~~~~~~~~~~~~N.@@@@@@@@@@@OO@XXX@@OOOOX+OO+OX,",
"^&.OOOOOO@XOOOOOO@@.o@@@@o f!~~~~~~~~~~~~~~~F@o@o@ooooooOX%G~~~!~~~~~~~!~M@@@D~~~~~~~~~~~~~~~~Q9.@@@@@@@@@@OX@@X@@@X@XO@XXXOXOXq",
"^&.OOOOOOOOOOOO&OO+4@....opR~~~~~~~~~~~~~~~~j @@+o@ooooXOXXZ~~~~~~~~~~~~~G%.qQ~~~~~~~~~~~~~~~~F@@@@@@@@@@@@@X@O@@X@@@@@X@+O+@OO^",
"^*.OOOOOOOOOOOO.@@8TGngyhZ!~~~~~~~~~~~~~~~~Y*o@@@o@@@ooOOO.n~~~~~~~~~~~~~Y;.N~~~~~~~~~~~~~~~~~h.@@@@@@@@@@@@oooOOOXXXX@@@XOO@O$^",
"^eXOX$OOOOOOOOO$OOn~~~~!~~~~~~~~~~~~~~~~~~~N.@@@@@@@ooX+OX.g!~~~~~!~~~~~~Q4*Y~~~~~~~~~~~~~~~~Y*o@@@@@@@@@@@@@+oXOXX@@@X@OOOO+X&^",
"^iO$OOOOOOOOOOOOO&U~~~~~~~~~~~~~~~~~~~~~~~!q.@@@@@@@ooooOO.q!~~~~~~~~~~~~!tk~~~~~~~~~~~~~~~~~B.@@@@@@@@@@@@@@@@++@@@X@@@+XOOX.<^",
"^d$@O$.OOOOOOOX+.g~~~~~~~~~~~~~~~~~~~~~~~~I%o@@@@@@@@@@XOoX2T~~~~~~~~~~~~~NG~~~~~~~~~~~~~~~~!q.@@@@@@@@@@@O@@Ooo@XOOXX@XOOOXX.1^",
"^^&&$.$OOOOOOOO++S~~~~~~~~~~~~~~~~~~~~~~~~ZX@@@@@@@@@o@@OOX+P~~~~~~~~~~~~!Q~~~~~~~~~~~~~~~~~F@@@@@@@@@@@@@O@@@+@XOOO+XO+OOO+O+^^",
"^^*&OX.OOOOOOOOXqQ~~~~~~~~~~~~~~~~~~~~~~~~CX@@@@@@@@@@@@OXXXA~~~~~~~~~~~~~~~~~~~~~~~~~~~~~~~j.@@@@@@@@@@oX@@O@+XOOOOOOOOOOX+X&^^",
"^^&&OX.&OOOOO$OXn~~~~~~~~~~~~~~~~~~~~~~~~~G@o@@@@@@@@@@XX@OXm~~~~~~~~~~~~~~~~~~~~~~~~~~~~~~Y2@@@@@@@@@@@@oXOOOX@+OOOOOOOXOO+X&^^",
"^^i&$XX.XXO&.&.&U~~~~~~~~~~~~~~~~~~~~~~~~~Qq.@@@@@@@@o@ooXoXj!~~~~~~~~~~~~~~~~~~~~~~~~~~~~~B.@@@@@@@@@@@oooXO OoX@X+X@+@o+++X<^^",
"^^^&XXX&.&OOOO&d~~~~~~~~~~~~~~~~~~~~~~~~~~~G*.@@@@@@o@oXooo yQ~~~~~~~~~~~~~~~~~~~~~~~~~~~~Qq.@@@@@@@@@@XooooO=o @X@@O@XXXXOOO^^^",
"^^^,.XX+X.XOXO&A~~~~~~~~~~~~~~~~~~~~~~~~~~~~D3 o@@@@@@oooooo,W~~~~~~~~~~~~~~~~~~~~~~~~~~~~J#@@@@@@@@@@@oooXoOOo=O@@@oX+Xo+oX%^^^",
"^^^9XXX+X&XOO.iW~~~~~~~~~~~~~~~~~~~~~~~~~~~~~Yk*o@@OOooo@XXX%I~~~~~~~~~~~~~~~~~~~~~~~~~~~~j.@@@@@@@@@@O@X+oOOOOo+X.@+OXO+XOX,^^^",
"^^^^$XXXXXOOOOeH~~~~~~~~~~~~~~~~~~~~~~~~~~~~~~~cXXoXooooOXoXXD~~~~~~~~~!~~~~~~~~~~~~~~~~~T2.@@@@@@@@@@OOX@XOOO=OX@O@OOXOOXOX^^^^",
"^^^^,XO+$OOOOO.&rCW~~~~~~~~~~~~~~~~~~~~~~~~~~~QqoX@Oooo@@Oo+.m~~~~~~~~~~~~~~~~~~~~~~~~~~~B.@@@@@@@@@@@OOXOOOOO o@XO@OOOXXXX$^^^^",
"^^^^i+XOXX@@.O@.X.,nY~~~~~~~~~~~~~~~~~~~~~~~~~D+X+oO+oXoOOOX.j~~~~~~~~~~~~~~~~~~~~~~~~~~!w.@@@@@@@@@@OOXOO@XoO O+X@OOX@O+XX,^^^^",
"^^^^^&XOOO@@@OOOXXXX=hF!~~~~~~~~~~~~~~~~~~~~!~jo+oOoOOX+OXOO t!~~~~~~~~~~~~~~~~~~~~~~~~~J#o@@@@@@@@@@OOOOXO@o =O@X@+OOOOX+O^^^^^",
"^^^^^1OOOOOOOOO.OXOOo Xl~~~~~~~~~~~~~~~~~~~~~I3X@+oXooX@OOOXX,W~~~~~~~~~~~~~~~~~~~~~~~~~k.@@@@@@@@@@@XX+OO OO=OOOOX+X+X++.=^^^^^",
"^^^^^^&O&OOOOOOOOXXOXX M~~~~~~~~~~~~~~~~~~~~~NO@oXo++XXoOOOOX&Y~~~~~~~~~~~~~~~~~~~~~~~~T2X@@@@@@@@@@X@X@OO= o OOOOXXXXXXXXq^^^^^",
"^^^^^^<X.OOOOOOOOOOO+X;T~~~~~~~~~~~~~~~~~~~~QqXOo+@oXXoXXOOOX+F~~~~~~~~~~~~~~~~~~~~~~~~VX@@@@@@@@@@@@X@@OOOOOoOOOO+X+X+XX-^^^^^^",
"^^^^^^i+.OOOO.OOOXOXX l~~~~~~~QbD!~~~~~~~~~~D+@Ooo+XX+X+OO@XX.M~~~~~~~~~~~~~~~~~~~~~~~!y.@@@@@@o@@@@@@@XOOO = OOOO++XXXXX1^^^^^^",
"^^^^^^^<..OO..OOOOXOX+G~~~~~~~AXOqMY~~~~~~~~hX+X@+X+OOOOXOXO+ x~~~~~~~~~~~~~~~~~~~~~~~J@o@@@@@@@@@@@@@@@OOO=OOOXOOOOOO+X$^^^^^^^",
"^^^^^^^d&.&O&.&.XOOX.y!~~~~~~~d.X.X=hK!~~~~I;X@@@XooXOXXOOO@o s~~~~~~~~~~~~~~~~~~~~~~~x.@@@@@@@@@@@@@@@XOOOOOOOOOOOOOO+.6^^^^^^^",
"^^^^^^^^&&&.&$..OOXX.V~~~~~~~I;XOXXX.OqVT~~mO@@O+XX++XXoOOXOXX6Q~~~~~~~~~~~~~~~~~~~~~W3.@@@@@@@@@@X@@@@XOOOOOOOOOOOOOOX$^^^^^^^^",
"^^^^^^^^^......&XOXX,W~~~~~~~bXOOOXXOX..:jDqX@@O@XoX@X+XOXOOXX;T~~~~~~~~~~~~~~~~~~~~~VXo@@@@@@@@@@@@@X@XOOOOOOOOXOOOOOX1^^^^^^^^",
"^^^^^^^^^<.XOX@@@@@.h!~~~~~~W9XXX+X+XoooX +@oX@OX+@+XOX@XOOOOXXF~~~~~~~~~~~~~~~~~~~~!y.@@@@@@@@@@@OOOOOOOOOOOOOOOOOOOX-^^^^^^^^^",
"^^^^^^^^^^$XOO@@@@@@#wVQ~~~~Z@O@OOoXOXOOX+XOoXX@ooXOoXoOOOOXX@XC~~~~~~~~~~~~~~~~~~~~P#o@@@@@@@@@@@OOXOXOOOOOO+oXOOOOOX^^^^^^^^^^",
"^^^^^^^^^^eXO@@@@@@@@.o4vU~!sX@O@OOOO+XOOOOO@++oooo@X@@OX@OOO@Xc~~~~~~~~~~~~~~~~~~~~x.@@@@@@@@@@@XXXXO@+OOOOOOOOXOOOX:^^^^^^^^^^",
"^^^^^^^^^^^4X@@@@@@@@@@..%fB*OOOOXOXOXoXXOXOXXXXoooX@O@XOOOOOO s!~~~~~~~~~~~~~~~~~~R3o@@@@@@@@@@@XOO@XX@OOOOOOOOOOXX$^^^^^^^^^^^",
"^^^^^^^^^^^^#@@@@@@@@@@@@o.X@@OOOOXOOXOOOOoXOOXoXO@@@X@@O@OOOOX5Q~~~~~~~~~~~~~~~~~~CX@@@@@@@@@@@XOOO+OOXOOOOOOOOOOXX^^^^^^^^^^^^",
"^^^^^^^^^^^^3.@@@@@@@@@@@@@o@@@@OXOOOOOOXOX+XO+@OOXOX@@@@@OOOXX;E~~~~~~~~~~~~~~~~~!y.@@@@@@@@@@OOOOOXXO@OXXOOOOXOOX1^^^^^^^^^^^^",
"^^^^^^^^^^^^^*@@@@@@@@@@@@@@@@@@@@OOOOOOOX+X+XOXOOXOXOX@@@@XOXX+K~~~~~~~~~~~~~~~~~P%@@@@@@@@@@@O@+@OOOOOOOOOOXX+O -^^^^^^^^^^^^^",
"^^^^^^^^^^^^^^#O@@@@@@@@@@@@@@@@@@@@OXO@OOXoXoOOOXOOOOOO@X@OO@oXC~~~~~~~~~~~~~~~~~x.@@@@@@@@@@@OXoOOOOOOOOXXOO+XO-^^^^^^^^^^^^^^",
"^^^^^^^^^^^^^^^@@@@@@@@@@@@@@@@@@@@@@@XXXOX+XOXOXOOX+XXX+X+XXoo.jQ~~~~~~~~~~~~~~~W4.@@@@@@@@@@O@@+oXOOOOOO =OOOXO^^^^^^^^^^^^^^^",
"^^^^^^^^^^^^^^^4o@@@@@@@@@@@@@@@@@@@@@@@@X@X+OOOOOOO@XoOXoXo+X@XX1ME~~~~~~~~~~~~~C.@@@@@@@@@@@OOOO@@OOOOOO= OOX+0^^^^^^^^^^^^^^^",
"^^^^^^^^^^^^^^^^2.@@@@@@@@@@@@@@@@@@@@@@@@@XX@XOOXOXXXOOXoOOOOXXXX 3V~~~~~~~~~~~!yo@@@@@@@@@@@@@Xoo+ O-X - -OOX,^^^^^^^^^^^^^^^^",
"^^^^^^^^^^^^^^^^^%.@@@@@@@@@@@@@@@@@@@@@@@@@@@OXOoX++@XOOX+XOX@oO+@ B~~~~~~~~~~~P*o@@@@@@@@@@X+Xo+@X=X OOXX XX-^^^^^^^^^^^^^^^^^",
"^^^^^^^^^^^^^^^^^^*o@@@@@@@@@@@@@@@@@@@@@@@@@@@@@XXX@OoXOO@X+X@+O@X3W~~~~~~~~~~~x.@@@@@@@@@@OX+++oOOOOXXOX+XX:^^^^^^^^^^^^^^^^^^",
"^^^^^^^^^^^^^^^^^^^*.@@@@@@@@@@@@@@@@@@@@@@@@@@@@@o+XOX+@XXXXoXOOXXx~~~~~~~TmI!W3o@@@@@@@@@@O+XX+oOOOO - -XX,^^^^^^^^^^^^^^^^^^^",
"^^^^^^^^^^^^^^^^^^^^%o@@@@@@@@oX@@@@@@@@@@@@@@@@@@@@@+XX+oO++X+@@X%P~~~~~~~m +hx@@@@@@@@@@@@OO+XoOOO=O-XX- <^^^^^^^^^^^^^^^^^^^^",
"^^^^^^^^^^^^^^^^^^^^^2o@@@@@@@XXOO@@@@@@@@@@@@@@@@@@@@o@XXOXXooXXoy!~~~~~~!q X.o@@@@@@@@@@@OX+X+ooOO OXXXX<^^^^^^^^^^^^^^^^^^^^^",
"^^^^^^^^^^^^^^^^^^^^^^4#o@@@@@@X@X+XOOO@@@@@@@@@@@@@@@@@@@OOOO@XXXC~~~~~~~F@X@+Xoooo@@@@@@@o+XXX++XX+X+X+8^^^^^^^^^^^^^^^^^^^^^^",
"^^^^^^^^^^^^^^^^^^^^^^^^%.o@@XO@OOXXOXOOO@@@@@@@@@@@@@@@@@@OOOO@o,E~~~~~~~h @XXooo+o@@@@@@o+XX+XXX$+XXX$e^^^^^^^^^^^^^^^^^^^^^^^",
"^^^^^^^^^^^^^^^^^^^^^^^^^5oXOXOOXX+XOOOXXOO@@@@@@@@@@@@@@@@@@@@@.c~~~~~~~Y=Xoo+XOoOO@@@@ooo@XXX+XXXXOX;^^^^^^^^^^^^^^^^^^^^^^^^^",
"^^^^^^^^^^^^^^^^^^^^^^^^^^6%XOOO+XXXXOXOOX@OO@@O@@@@@@@@@@@@@@@.@BQ~~~~~~B oooXoOOOO@@@@++ooX+XXX+X.X<^^^^^^^^^^^^^^^^^^^^^^^^^^",
"^^^^^^^^^^^^^^^^^^^^^^^^^^^^;XXOO+XXXX+oOXXXOOOO@@@@@@@@@@@@@@@@@@qBR~~~Q9 XXooO OOOOOO+XXOOOOX+++ $9^^^^^^^^^^^^^^^^^^^^^^^^^^^",
"^^^^^^^^^^^^^^^^^^^^^^^^^^^^^9+XXO+XOXXoOOOXXOOOX@@@@@@@@@@@@@@@@@.X2xP~FOOOooOO=XOOOOXXX+OOX+++XX,^^^^^^^^^^^^^^^^^^^^^^^^^^^^^",
"^^^^^^^^^^^^^^^^^^^^^^^^^^^^^^^,+XXOOOXXOOXOOXXXOOO@@@@@@@@@@@@@@@@@..%gu OXOOOO XXOOXXX+OO+++++;^^^^^^^^^^^^^^^^^^^^^^^^^^^^^^^",
"^^^^^^^^^^^^^^^^^^^^^^^^^^^^^^^^a-XXXX+XOXOXX+XOOXOXO@X@@@@@@@@@@@@@@@o.o+OOXOXO-OOOOO+XXOO+XX&1^^^^^^^^^^^^^^^^^^^^^^^^^^^^^^^^",
"^^^^^^^^^^^^^^^^^^^^^^^^^^^^^^^^^^0;oXXXOOOOXOXXXOOXOXOO@@@@@@@@@@@@@@@@Xo@OXOOOO+OXX+O+O+XX$<^^^^^^^^^^^^^^^^^^^^^^^^^^^^^^^^^^",
"^^^^^^^^^^^^^^^^^^^^^^^^^^^^^^^^^^^^r;XoXOOOOXOXXOXOOOXO@@@@@@@@@@@@@@@@@o@XooOOOO+++XOOXX+1^^^^^^^^^^^^^^^^^^^^^^^^^^^^^^^^^^^^",
"^^^^^^^^^^^^^^^^^^^^^^^^^^^^^^^^^^^^^^a4+XXOOXXXOOXXOOXO@@@@@@@@@@@@@@@@@@@@XXOO+OO++XXO-1^^^^^^^^^^^^^^^^^^^^^^^^^^^^^^^^^^^^^^",
"^^^^^^^^^^^^^^^^^^^^^^^^^^^^^^^^^^^^^^^^^1-O XXXXOOOOXOO@@@@@@@@@@@@@@@@@@@@++XXOOOO+-<^^^^^^^^^^^^^^^^^^^^^^^^^^^^^^^^^^^^^^^^^",
"^^^^^^^^^^^^^^^^^^^^^^^^^^^^^^^^^^^^^^^^^^^u6-XXXXXOOXXX@@@@@@@@@@@@@@@@@OOOXX.XXX$<0^^^^^^^^^^^^^^^^^^^^^^^^^^^^^^^^^^^^^^^^^^^",
"^^^^^^^^^^^^^^^^^^^^^^^^^^^^^^^^^^^^^^^^^^^^^^s9-+OXXXXO@@@@@@@@@@@@@@@o@OXOX++-<r^^^^^^^^^^^^^^^^^^^^^^^^^^^^^^^^^^^^^^^^^^^^^^",
"^^^^^^^^^^^^^^^^^^^^^^^^^^^^^^^^^^^^^^^^^^^^^^^^^^^6<=$+@@oooooo@@.@ooXO+%;,6^^^^^^^^^^^^^^^^^^^^^^^^^^^^^^^^^^^^^^^^^^^^^^^^^^^",
"^^^^^^^^^^^^^^^^^^^^^^^^^^^^^^^^^^^^^^^^^^^^^^^^^^^^^^^^pq2**#%%%#%%*50a^^^^^^^^^^^^^^^^^^^^^^^^^^^^^^^^^^^^^^^^^^^^^^^^^^^^^^^^"
};
