/* XPM */
static char *nakam32[] = {
/* columns rows colors chars-per-pixel */
"32 32 50 1 ",
"  c #72B5B68F4660",
". c #74C7B71E491D",
"X c #789BB7664DFD",
"o c #74CEB8BA49B6",
"O c #7909B96B4E93",
"+ c #7A4DB7B95157",
"@ c #7C3FBA4C532C",
"# c #7EF3BA4A584A",
"$ c #81BEBE785A89",
"% c #8460C0DA5E2D",
"& c #8692C0416050",
"* c #8AACC2F665D4",
"= c #8E4FC47D6ADA",
"- c #908BC5D06E0C",
"; c #9443C773727E",
": c #9526C8D773FE",
"> c #9C77CC277D85",
", c #9EB5CCC580AF",
"< c #A1C5CF39846F",
"1 c #A6DDD1FB8B08",
"2 c #A928D2C48E0D",
"3 c #ADDDD6009476",
"4 c #B313D7959B0F",
"5 c #B4BAD9089D25",
"6 c #B78ADA40A0E0",
"7 c #BA43DBD7A44A",
"8 c #BEC2DE39AA65",
"9 c #C112DF2BACE5",
"0 c #C3BCE04BB0EC",
"q c #C2E5E0B3AFFB",
"w c #C698E1EBB4C2",
"e c #C914E3EEB812",
"r c #CC7FE4F9BC89",
"t c #D029E73BC0E3",
"y c #D1CAE7FBC374",
"u c #D385E914C5F4",
"i c #D6D7EAA9CA03",
"p c #DA3AEC7DCE75",
"a c #DD8FEE04D2DD",
"s c #E230EFEBD8B5",
"d c #E4D3F1E2DC4D",
"f c #E816F3BCE094",
"g c #EB3DF535E4B6",
"h c #EFF2F7A6EAF9",
"j c #F0E6F7B5EB9F",
"k c #F2FBF913EEE1",
"l c #F667FB03F380",
"z c #F9ABFCB0F7D2",
"x c #FF8FFFC1FF6B",
"c c None",
/* pixels */
"cccccccccccc@+ooo++@cccccccccccc",
"ccccccccc@X.oooooooo.oOccccccccc",
"ccccccc@X..  *8:oooo o.o$ccccccc",
"cccccc+o. =:O7xwooooooo ..cccccc",
"cccccO...Xtzajz> ..... ooooccccc",
"ccccO....=lxxxzw* .. ...o o cccc",
"ccc@.o.. :hxxxxx9.......o-$..ccc",
"ccc....oo 1xxxxxi....@. -jy$.$cc",
"cc..oooooo<xxxxxd@  @iu<9xw...cc",
"c$..o ooootxxxxxj*  ,zxzzz2   +c",
"c+X.oo o =kxxxxxx: .qxxxxxjr;.Xc",
"cX..o  o 7xxxzxxx3 o*axxxxxx4..c",
"#Xoooooo$sxxxwkxx8 . wxxxxxj*..O",
"+..ooooo<zxxg=dxxt. @dxxxd73...X",
"+...ooootxxxwoixxd@ <xxxl; o....",
"O...ooo*kxxl; wxxj$Xyxxxuo...o.X",
"Xo..oo 5xxxio 4xxz;=lxxx1 oo o o",
"X...o $sxxz2..>zxx17xxxf% oooo.O",
"+o..>epxxxf%. *lxxrdxxx8  o ...+",
"#o.+uxxxxxu   $gxxlxxxl- ooo...+",
"cX -lxxxxxh>..opxxxxxxiO .... .c",
"c+o#5dxxxxxr. .exxxxxx1 o.....Xc",
"c#X  >xllxx1 . 4xxxxxf% oo....+c",
"ccX .0x8*7y$ . <xxxxx9ooo ....cc",
"cccoo<u=  O..  -lxxxl:.o.....+cc",
"cccOo.oo ...o .$hxxxiO o....Xccc",
"ccccoooooo......1kxz2 o. ...cccc",
"cccccooo ooo... ;lh5% ....Xccccc",
"cccccc@o.. .oo  6x8 .....Xcccccc",
"ccccccccX.. oooo%3* ...X@ccccccc",
"ccccccccc@X. .oo.  .XX@ccccccccc",
"cccccccccccc@OOooOO+cccccccccccc"
};
