/* XPM */
static char *nakam16[] = {
/* columns rows colors chars-per-pixel */
"16 16 136 2 ",
"   c #7081B63D4374",
".  c #71CDB57044E0",
"X  c #7241B5E945D6",
"o  c #7285B6D4465E",
"O  c #73A0B6A74751",
"+  c #72ACB79146DD",
"@  c #7323B7B0475F",
"#  c #7467B5A047B1",
"$  c #73A2B5874841",
"%  c #73E0B7044883",
"&  c #73B1B7E34826",
"*  c #754CB6084931",
"=  c #7462B7174836",
"-  c #7448B79D4896",
";  c #74D6B6EF48D4",
":  c #7561B6C74966",
">  c #7497B7C54900",
",  c #7566B7A3496B",
"<  c #7560B73549F5",
"1  c #748DB7BE4A86",
"2  c #74F9B7DA4AAA",
"3  c #7612B7144AAF",
"4  c #7616B7944A94",
"5  c #7683B7EF4B48",
"6  c #7754B6D64C89",
"7  c #768FB76C4C58",
"8  c #7701B7D24C18",
"9  c #76D6B7124D65",
"0  c #772BB6624E5A",
"q  c #77B8B7F44E7D",
"w  c #7881B6A44DBD",
"e  c #7843B7D94D61",
"r  c #7930B6F44E5E",
"t  c #73A5B8534837",
"y  c #747AB8894953",
"u  c #759DB8C44A69",
"i  c #7624B8E74B83",
"p  c #762DB98B4B87",
"a  c #7745B8734C55",
"s  c #76EDB9464C2E",
"d  c #7731B9814CA6",
"f  c #77F4B8594D23",
"g  c #779BB9C64D29",
"h  c #77F5BA7C4DDD",
"j  c #7857B8E24D52",
"k  c #78A0B9094E45",
"l  c #78F9B91D4E19",
"z  c #79A3B8664F2C",
"x  c #79E1B9B74FCC",
"c  c #78B1BAE04EC7",
"v  c #79D8B7F65185",
"b  c #7B0EBAEC50B7",
"n  c #7AB7B9ED5210",
"m  c #7E30BBCF554A",
"M  c #7E8FBDE65686",
"N  c #80DBBE5D5962",
"B  c #8200BD855BB2",
"V  c #81E2BF9C5AD2",
"C  c #8280BEA25ACF",
"Z  c #8379BE9A5D3D",
"A  c #858BBF2D5F54",
"S  c #84BFC0E35E93",
"D  c #868DC06F605B",
"F  c #87D5C190621B",
"G  c #89E4C3B6654B",
"H  c #8B96C484678D",
"J  c #8E11C41369D9",
"K  c #9365C73870BE",
"L  c #932FC7F27140",
"P  c #93AFC8357207",
"I  c #95CDC8297463",
"U  c #9310C872714C",
"Y  c #993DC9E978E0",
"T  c #9D5DCC377E3E",
"R  c #9DB3CCF27ECB",
"E  c #A005CE2781C6",
"W  c #9FB3CED881D0",
"Q  c #A3E5CF7286E1",
"!  c #A725D1BA8B32",
"~  c #A9AAD3EE8ED6",
"^  c #AB5DD4CF9137",
"/  c #AF39D6779619",
"(  c #B0D8D6C6980E",
")  c #B1EBD81299AC",
"_  c #B72EDADCA0A1",
"`  c #B7F9DB05A1A3",
"'  c #B85CDA14A20C",
"]  c #B872DABAA24A",
"[  c #BA2BDB90A41B",
"{  c #BB31DC14A59D",
"}  c #BEF6DEDAAA9C",
"|  c #C4D6E19BB259",
" . c #C7E6E2C7B6FF",
".. c #CB30E3F9BAB9",
"X. c #CC8BE510BC37",
"o. c #CD97E63FBDE7",
"O. c #CF01E6B2BF96",
"+. c #CFEDE6B1C0A4",
"@. c #D593EA3EC873",
"#. c #D693EA78C9B0",
"$. c #D786EA9DCADD",
"%. c #D85EEBD2CC19",
"&. c #D945EC03CD04",
"*. c #D9FEEBF9CE3B",
"=. c #DA83EC29CECD",
"-. c #DE5DEE43D3C5",
";. c #DF9BEEFCD565",
":. c #DFC7EF84D5CA",
">. c #E12EEF7AD7CC",
",. c #E2D6F11DD9CC",
"<. c #E396F13EDA72",
"1. c #E47BF18FDBE7",
"2. c #E638F236DDB9",
"3. c #E826F36FE086",
"4. c #E8A5F413E15A",
"5. c #EB7EF580E542",
"6. c #EDADF637E804",
"7. c #EE3FF691E8A0",
"8. c #F136F82CEC96",
"9. c #F256F900EE15",
"0. c #F281F8CEEE5B",
"q. c #F2F2F95CEEE5",
"w. c #F4EFFA57F17D",
"e. c #F646FB05F342",
"r. c #F6B0FB46F3C0",
"t. c #F7ABFB7FF51D",
"y. c #F95DFC94F74D",
"u. c #FA12FCD1F83E",
"i. c #FC00FDF5FAB7",
"p. c #FD25FE6AFC4B",
"a. c #FDCBFEDEFD28",
"s. c #FE7DFF16FE28",
"d. c #FF65FFA4FF38",
"f. c #FF9CFFCCFF71",
"g. c white",
"h. c None",
/* pixels */
"h.h.h.h.h.3 s h i a e h.h.h.h.h.",
"h.h.h.l 5 A Y ` d y > , j h.h.h.",
"h.h.f = Z >.0.$.m O - - & y h.h.",
"h.z , = N :.g.p.Q . x k E L : h.",
"h.4 > - c %.g.g.' X ] *.3.Q # h.",
"v 2 y + U r.a.g...5 | g.f.2.J * ",
"q 1 y t } g.#.8.-.g ^ g.w.O.C : ",
"7 - @ V 4.y.R ;.6.F @.g.` p y 4 ",
"7 % i ~ f.&.b O.t.( e.9.H + - 4 ",
"9 n  .q.g.)   { s.5.g.o.p - = 7 ",
"0 B =.d.g.O.u ! d.g.i.W o - ; e ",
"h.$ T 1.+.[ O I u.g.,.M & ; : h.",
"h.i S P 5 k o D 7.g._ @ - ; 6 h.",
"h.h.y @ - - = 5 X.<.G @ : 6 h.h.",
"h.h.h.k < - - u / K O 3 w h.h.h.",
"h.h.h.h.h.e 5 u p 8 r h.h.h.h.h."
};
