/* XPM */
static char *nakam64[] = {
/* columns rows colors chars-per-pixel */
"64 64 59 1 ",
"  c #6E5BB3AA4233",
". c #72ECB66B4675",
"X c #7451B8894775",
"o c #74A7B6F448F6",
"O c #7906B75C4E49",
"+ c #747BB8B24957",
"@ c #78D2B9D24EA0",
"# c #7B4CB7645226",
"$ c #7CA9BAE55391",
"% c #7F65BB615862",
"& c #8097BB03576F",
"* c #82BFBD265BE1",
"= c #86B7BDBD61C3",
"- c #8945BEFA63C7",
"; c #8BC3C0166819",
": c #846EC0F15E3E",
"> c #86CDC149613A",
", c #89EEC31D6549",
"< c #8E1FC4E96B10",
"1 c #91A2C6C76F00",
"2 c #94BBC667737B",
"3 c #9570C967744F",
"4 c #97CBC8BA77FE",
"5 c #9B31CBB57C0C",
"6 c #9EF5CD858124",
"7 c #A239CEC9850D",
"8 c #A4AECEAE8839",
"9 c #A2F7D07C8644",
"0 c #A642D1FD8A6E",
"q c #A934D2D48E03",
"w c #AD41D4F69376",
"e c #B0EDD6579811",
"r c #B338D79E9B84",
"t c #B542D9389E25",
"y c #B772DA54A111",
"u c #BAA9DBE5A4E9",
"i c #BFB8DF1EABE2",
"p c #C1FFDF40AE81",
"a c #C46EE038B223",
"s c #C69EE22CB4BC",
"d c #CCDDE536BD12",
"f c #CFC3E6A7C0E3",
"g c #D1A1E7D7C32C",
"h c #D3BBE924C5E5",
"j c #D602EA96C8F7",
"k c #DA3CEC36CE2B",
"l c #DD47EDE3D278",
"z c #E0A1EFBCD740",
"x c #E265F052D950",
"c c #E545F220DCB2",
"v c #E82FF3C0E0E6",
"b c #EB5FF536E4F4",
"n c #EEDBF709E9B2",
"m c #F11CF807EBF6",
"M c #F2BFF93FEE93",
"N c #F665FAF5F370",
"B c #F99CFC9EF75F",
"V c #FFCBFFDEFFB8",
"C c None",
/* pixels */
"CCCCCCCCCCCCCCCCCCCCCCCCCC,&$$@@@@$%:,CCCCCCCCCCCCCCCCCCCCCCCCCC",
"CCCCCCCCCCCCCCCCCCCCCC*$$++++XX++X.++oOO&*CCCCCCCCCCCCCCCCCCCCCC",
"CCCCCCCCCCCCCCCCCCCC&O..++++++++++++ooo...O$CCCCCCCCCCCCCCCCCCCC",
"CCCCCCCCCCCCCCCCC*$Oooo.++++XX+++++++++ooo.ooO*CCCCCCCCCCCCCCCCC",
"CCCCCCCCCCCCCCCC#oooooooooo&0:+.+++++++++oooo.oOCCCCCCCCCCCCCCCC",
"CCCCCCCCCCCCCC&OoooooooooOoeVns1+++++++++++XooooO&CCCCCCCCCCCCCC",
"CCCCCCCCCCCCC$++oooOo#o.ooOlVVVy.+++++++++++ooXoo.+CCCCCCCCCCCCC",
"CCCCCCCCCCC>+ooooooO#aa2O 4BVVm<.ooo++++X++XXX++oooO*CCCCCCCCCCC",
"CCCCCCCCCC*Oooo+oooo2NVNk0fVVVdo.ooooo.ooooo+++++++++@CCCCCCCCCC",
"CCCCCCCCC*ooo+ooOoooiVVVVVVVVB5..oooooooooX+++++++++++$CCCCCCCCC",
"CCCCCCCC*OooooOo++o*vVVVVVVVVNw&..ooooooooooX++X++++++X+CCCCCCCC",
"CCCCCCCCOooooXoo++owVVVVVVVVVVVbyOo.oo.ooooooooo++++++++CCCCCCCC",
"CCCCCCCOoooo+XoXooOjVVVVVVVVVVVVN<..o.o.oooo.ooo++X.XXX++CCCCCCC",
"CCCCCC&oooXOOooo+++3gVVVVVVVVVVVV5..oooooooo.oooXoq0:X++oOCCCCCC",
"CCCCC=oOXoX+XXoX+++X$lVVVVVVVVVVVw...o..oo.ooo.oo*bVcu@ooO&CCCCC",
"CCCCCOoXoooooooO++++ tVVVVVVVVVVVp..oooo..&*o..oowVVVz$oooOCCCCC",
"CCCC#.oo+ +ooo+o++++ uBVVVVVVVVVVh+ooo+.o.yns4O.+kVVVe.o.o.&CCCC",
"CCCCOooo++++ooo+++++$lVVVVVVVVVVVx%o+.o+.%cVVBlw0BVVm-...o..CCCC",
"CCC&oO+o++++ooo++++o4NVVVVVVVVVVVm=.o.oo.7VVVVVVBVVVao...oooOCCC",
"CCCOo+oo++++oo++++++sVVVVVVVVVVVVB2.oooo+gVVVVVVVVVVu#..ooooOCCC",
"CC%ooo+O+++++++++++>nVVVVVVVVVVVVV8.ooo.2NVVVVVVVVVVBcy<o.ooo&CC",
"CC%oOo++++++++++++.wVVVVVVVVVVVVVVy.ooo.qBVVVVVVVVVVVVVma1.ooOCC",
"CCOoO+++++++++++++@lVVVVVVVVVVVVVVdo+.++$6bVVVVVVVVVVVVVB2.ooo&C",
"C=o++++++++++++++.3NVVVVVVVbVVVVVVl#.X++X qBVVVVVVVVVVVVhOoo..$C",
"C%+++++++++++++++.pVVVVVVVbwBVVVVVb*.ooo+X>NVVVVVVVVVVVB7.ooooOC",
"C#o+#++O+++++++++:bVVVVVVVs<NVVVVVN1.o+++.3BVVVVVVVVVVVc&o+ooooC",
"C#oo++ooO++++++++qVVVVVVVB2$cVVVVVV7.+++++iVVVVVVVVBnbVt.oooooo*",
";ooo++oo+++++++++jVVVVVVVk++kVVVVVVt.++++:bVVVVVVVNw:&5:ooXoooo*",
"=ooooooo+++++++ 3NVVVVVVVq..sVVVVVVso+++XwVVVVVVVVu.XXoX++XooooO",
"%oooooo+++++++++iVVVVVVVb&..wVVVVVVlOo+o$lVVVVVVVm,X+XX++XXOXoo$",
"%oooooooo+++++ %vVVVVVVViX+ 6BVVVVVb&.o.4BVVVVVVVd++++++++XXoooO",
"%ooooooooo+++++0VVVVVVVN1X..<NVVVVVN1.oXsVVVVVVVB5X+++++++Xoooo$",
"%ooo+oooX++++++gVVVVVVVjX.o.&nVVVVVV6..=nVVVVVVVc$X++++++++++.o$",
"%ooo.oooX++++X1NVVVVVVV9Xooo+kVVVVVVr..rVVVVVVVVt.+++++o++++.o.$",
"%Ooooooo+++++XuVVVVVVVc&oXooosVVVVVVs+$zVVVVVVVm,X++++o+.+oo.o.$",
"%ooooooo+..X >bVVVVVVVy.oXXootVVVVVVk+6BVVVVVVVd+X++++..+o.oooo$",
"%#O ooooo60<6lVVVVVVVm<XX+Xo.5VVVVVVb*dVVVVVVVB6.+++++Xoo.ooooo*",
"C#Oooooo$xVBBVVVVVVVVg++X+XX.1NVVVVVm0mVVVVVVVc$+++++++oooooooo=",
"C#oooooo6BVVVVVVVVVVVqo+++X+o&bVVVVVBcVVVVVVVVtX++++++oooooooooC",
"C%o+ooo+fVVVVVVVVVVVV0.++++oXOkVVVVVVVVVVVVVVm<+++++Xoo+oooooo#C",
"C=ooooo;mVVVVVVVVVVVVj$.X+XXXodVVVVVVVVVVVVVVd++++XXoooooooooo#C",
"CCoooooyVVVVVVVVVVVVVVd,XooXX.tVVVVVVVVVVVVVV6X++++Xoooo+oooooCC",
"CC%oooO4hBVVVVVVVVVVVVVsoo..o.7VVVVVVVVVVVVVc%++++Xooo.oo+o.oOCC",
"CC=oooO o2pbVVVVVVVVVVB9oXXoo.1NVVVVVVVVVVVVyX++++ooo.ooooooo$CC",
"CCC%ooo o..7BVVVVVVVVVc%ooooo.*mVVVVVVVVVVVm<+++++oooooooooooCCC",
"CCC%ooooo..pVVVbbVVVVVt.ooo.oo$xVVVVVVVVVVVg++++++oXooO.oooo#CCC",
"CCCC#o Oo.*nVVB7&wlBVm<.oooo.oodVVVVVVVVVVV9X++++++Xooooo.ooCCCC",
"CCCC#oooo.eVVVl$..O4sp+oooo..o.uVVVVVVVVVVc%+++++X+oo.ooooo#CCCC",
"CCCCCOo++oqvVVt ooo..O.o.ooooo.0VVVVVVVVVVu.++++oooooooooooCCCCC",
"CCCCC=+++++%0d,+ooooo.ooXXXooo.1BVVVVVVVVN<X++++.o.ooooooo&CCCCC",
"CCCCCC@@++++X++oooooo.o.oooXXoo:mVVVVVVVVg++++++oooooooooOCCCCCC",
"CCCCCCC@++++++++++.ooooooo.oooo@cVVVVVVVV0o+++++Xooo.ooooCCCCCCC",
"CCCCCCC%+++++++++++X.ooo.ooo.oooqcVVVVVVc:XX++oooooooooo*CCCCCCC",
"CCCCCCCC@X+++++++++++oo.ooooooo..&xVVVVVu++X+++oo+oooo.&CCCCCCCC",
"CCCCCCCCC$++++++++++++++oooo.o.oo<NVVBcn<X++oooooooooo&CCCCCCCCC",
"CCCCCCCCCC$++++oo+++++++XXXooooo.uVVVd$2++++ooooooOoo&CCCCCCCCCC",
"CCCCCCCCCCC:+X++oooooo++++++++++&cVVV6..oooooooooooO=CCCCCCCCCCC",
"CCCCCCCCCCCCC$o.oo.o.ooo++++++++4NVVcO..oooo+oooo.OCCCCCCCCCCCCC",
"CCCCCCCCCCCCCC&Ooooooooo+++++++X$3snt.XooooooooOO&CCCCCCCCCCCCCC",
"CCCCCCCCCCCCCCCC#oooo..oo.o++++++XX,&.ooooooO.O#CCCCCCCCCCCCCCCC",
"CCCCCCCCCCCCCCCCCC$oooo...oo+X++++++Xoooooooo#-CCCCCCCCCCCCCCCCC",
"CCCCCCCCCCCCCCCCCCCC&O...oo.XX++++++XX..oO#&CCCCCCCCCCCCCCCCCCCC",
"CCCCCCCCCCCCCCCCCCCCCC-&Ooo.XX+++++.oooO$=CCCCCCCCCCCCCCCCCCCCCC",
"CCCCCCCCCCCCCCCCCCCCCCCCCC==%$@O++$**-CCCCCCCCCCCCCCCCCCCCCCCCCC"
};
