<?xml version="1.0" encoding="UTF-8"?>
<svg version="1.1" xmlns="http://www.w3.org/2000/svg" width="256" height="256">
<path d="M0 0 C4.17111998 3.52480584 7.96700685 7.34254495 11.72265625 11.30078125 C12.56828125 12.12578125 13.41390625 12.95078125 14.28515625 13.80078125 C30.38104952 30.30938973 41.32045695 49.89032381 46.72265625 72.30078125 C46.98232178 73.31914063 47.2419873 74.3375 47.50952148 75.38671875 C49.63876224 84.32586425 50.24519554 92.88390122 50.16015625 102.05078125 C50.15559418 103.09977097 50.15559418 103.09977097 50.15093994 104.16995239 C50.0794728 115.31104415 49.13777358 125.65489081 45.72265625 136.30078125 C45.51898438 136.98527344 45.3153125 137.66976562 45.10546875 138.375 C40.09168534 155.11856066 31.97253135 170.90048754 20.72265625 184.30078125 C19.64564453 185.58662109 19.64564453 185.58662109 18.546875 186.8984375 C3.11901858 204.62814106 -15.85454624 216.6266821 -37.83984375 224.61328125 C-38.77437378 224.95879028 -38.77437378 224.95879028 -39.7277832 225.3112793 C-52.25928132 229.63440025 -64.75509276 230.88685406 -77.90234375 230.80078125 C-78.6426886 230.79868652 -79.38303345 230.7965918 -80.14581299 230.79443359 C-92.73689026 230.72133001 -104.31061929 229.44911558 -116.27734375 225.30078125 C-117.12425781 225.01138672 -117.97117187 224.72199219 -118.84375 224.42382812 C-138.96671247 217.36129808 -161.21361336 205.66674977 -174.27734375 188.30078125 C-175.04046875 187.37136719 -175.80359375 186.44195312 -176.58984375 185.484375 C-188.33236492 171.03622468 -196.66068278 154.48823139 -202.02734375 136.67578125 C-202.22618164 136.019729 -202.42501953 135.36367676 -202.62988281 134.68774414 C-211.71163792 102.96780616 -206.07610952 68.88989008 -190.85546875 40.05078125 C-185.02723761 29.89465571 -178.03031709 21.01846448 -170.27734375 12.30078125 C-169.70628906 11.64464844 -169.13523438 10.98851562 -168.546875 10.3125 C-125.72346109 -35.81349082 -48.2387086 -37.59113362 0 0 Z " fill="#75B74B" transform="translate(206.27734375,25.69921875)"/>
<path d="M0 0 C5.13373162 1.39038565 10.03739743 3.08460953 15 5 C12.94235079 11.45353615 10.57616518 17.7361263 8 24 C8.61488281 24.20496094 9.22976562 24.40992187 9.86328125 24.62109375 C13.2421875 25.74739583 16.62109375 26.87369792 20 28 C22.34357796 39.88600729 24.17628778 51.7907666 25.80224609 63.79370117 C27.0248291 72.77604409 28.45046055 81.63926984 30.29052734 90.51879883 C31.34229384 95.67954847 32.21168616 100.86544906 33.0625 106.0625 C33.23241455 107.08746582 33.4023291 108.11243164 33.57739258 109.16845703 C34.6942181 115.96163002 35.71678482 122.75885161 36.60546875 129.5859375 C36.87778874 132.00315705 36.87778874 132.00315705 38 134 C38.7410498 132.20767944 38.7410498 132.20767944 39.49707031 130.37915039 C41.34467719 125.91137284 43.19384143 121.44424122 45.04345703 116.97729492 C45.84107723 115.05038526 46.63828495 113.12330479 47.43505859 111.19604492 C48.58580705 108.41278911 49.73807795 105.63016766 50.890625 102.84765625 C51.24183411 101.99728287 51.59304321 101.14690948 51.95489502 100.27076721 C53.94855331 95.46224599 56.01735354 90.70539055 58.22064209 85.98875427 C59.46359592 82.81700262 59.51390772 80.3404002 59 77 C56.63004961 73.13785862 53.97927357 71.10017216 50 69 C50.45878343 64.41216575 51.82408497 61.15274904 53.95703125 57.1640625 C55.4129119 54.14324646 56.30042886 51.01149052 57.19140625 47.78515625 C57.45824219 47.19605469 57.72507813 46.60695312 58 46 C61.57484289 44.8083857 62.28587882 45.25211544 65.66796875 46.65234375 C66.56064453 47.01650391 67.45332031 47.38066406 68.37304688 47.75585938 C69.30181641 48.14580078 70.23058594 48.53574219 71.1875 48.9375 C72.12787109 49.32357422 73.06824219 49.70964844 74.03710938 50.10742188 C76.36169628 51.06321649 78.68229199 52.02767007 81 53 C84.17403237 49.82596763 85.24114488 45.47175766 86.7890625 41.32226562 C88.79368622 36.10315689 88.79368622 36.10315689 91 35 C93.23601706 35.73288477 95.44171775 36.55990615 97.625 37.4375 C98.81351563 37.91058594 100.00203125 38.38367187 101.2265625 38.87109375 C102.14179688 39.24363281 103.05703125 39.61617187 104 40 C103.38169051 45.02474293 101.87023224 49.24720494 99.9375 53.875 C99.65583984 54.56335938 99.37417969 55.25171875 99.08398438 55.9609375 C98.39484734 57.64289909 97.69819202 59.32177697 97 61 C97.66386719 61.10183594 98.32773438 61.20367187 99.01171875 61.30859375 C102.79173327 62.18318535 106.23270859 63.58605015 109.8125 65.0625 C110.50537109 65.34416016 111.19824219 65.62582031 111.91210938 65.91601562 C113.60967624 66.60674973 115.30506312 67.30283728 117 68 C116.3661521 73.517155 114.49435691 78.26747809 112.4375 83.375 C112.10814453 84.20644531 111.77878906 85.03789063 111.43945312 85.89453125 C110.63155238 87.93184618 109.8182989 89.96684442 109 92 C108.2575 91.84144531 107.515 91.68289062 106.75 91.51953125 C104.45765797 91.08646095 102.32540349 90.77657796 100 90.6875 C99.360625 90.65011719 98.72125 90.61273438 98.0625 90.57421875 C94.73700709 91.26073149 93.42836667 92.56874823 91 95 C89.07588998 98.61121407 87.65733863 102.40134815 86.1953125 106.21875 C85.48052951 108.02824301 84.76572211 109.83772647 84.05025673 111.64694977 C83.26098111 113.64976071 82.47864542 115.65518169 81.6973877 117.66113281 C79.89675416 122.276149 78.06121726 126.87694012 76.22167969 131.4765625 C72.44497169 140.92460557 68.68686977 150.37995353 64.93255615 159.83691406 C63.50200778 163.43925068 62.06994578 167.0409848 60.63789177 170.64272308 C59.25269339 174.12706797 57.86831162 177.61173683 56.48419571 181.09651184 C55.82655462 182.75202881 55.16868722 184.40745589 54.51058578 186.06278992 C53.60113004 188.35078155 52.692747 190.63919606 51.78466797 192.92773438 C51.51567184 193.60388794 51.24667572 194.2800415 50.9695282 194.97668457 C49.91544559 197.63592831 48.90484715 200.28545856 48 203 C45.36 202.67 42.72 202.34 40 202 C37.69 207.61 35.38 213.22 33 219 C27.25567336 217.39158854 23.16998912 216.10199347 18 213 C21.465 204.09 21.465 204.09 25 195 C23.02 194.34 21.04 193.68 19 193 C18.34 192.67 17.68 192.34 17 192 C16.28044896 189.15950157 15.70198847 186.38033155 15.1875 183.5 C15.01863281 182.58436279 14.84976563 181.66872559 14.67578125 180.7253418 C12.12234888 166.53922095 10.10913129 152.25742671 8 138 C7.33963215 133.54069613 6.67457029 129.08217853 6 124.625 C5.8443457 123.59560303 5.68869141 122.56620605 5.52832031 121.50561523 C4.10361657 112.28766643 2.39454831 103.12668606 0.57421875 93.97900391 C-0.54506809 88.20218151 -1.25648777 82.88496934 -1 77 C-1.66 77 -2.32 77 -3 77 C-3.16789032 77.52864151 -3.33578064 78.05728302 -3.50875854 78.60194397 C-5.47602687 84.66256165 -7.76704845 90.54449765 -10.1953125 96.43359375 C-10.58822479 97.39274185 -10.98113708 98.35188995 -11.38595581 99.34010315 C-12.20987602 101.3499362 -13.03518205 103.35920166 -13.86181641 105.36791992 C-15.13086981 108.45176384 -16.39587933 111.53724206 -17.66015625 114.62304688 C-18.46331046 116.58082403 -19.26668785 118.53850965 -20.0703125 120.49609375 C-20.44946808 121.41998398 -20.82862366 122.34387421 -21.2192688 123.29576111 C-21.56988373 124.14747391 -21.92049866 124.99918671 -22.28173828 125.87670898 C-22.59023712 126.62677719 -22.89873596 127.3768454 -23.21658325 128.14964294 C-23.76804888 129.45215316 -24.36744215 130.73488429 -25 132 C-25.61029595 137.41419689 -26.05214882 141.60661373 -22.6875 146.0625 C-20.81706723 147.41095153 -18.91856442 148.72095706 -17 150 C-19.30643508 158.13815304 -22.10428784 166.05682118 -25 174 C-30.7693614 173.40414792 -35.61661536 171.23012403 -40.875 168.9375 C-41.75414062 168.56044922 -42.63328125 168.18339844 -43.5390625 167.79492188 C-45.69531564 166.86913928 -47.84876979 165.93738089 -50 165 C-50.19698486 165.60255615 -50.39396973 166.2051123 -50.59692383 166.82592773 C-50.86013428 167.62458252 -51.12334473 168.4232373 -51.39453125 169.24609375 C-51.65339111 170.0342749 -51.91225098 170.82245605 -52.17895508 171.63452148 C-53.29095713 174.83826452 -54.61692654 177.90454987 -56 181 C-61.54050113 180.43174347 -66.03715966 178.37113483 -71 176 C-69.23536928 169.89262558 -67.30442525 163.92566493 -65 158 C-65.69609375 157.88398438 -66.3921875 157.76796875 -67.109375 157.6484375 C-70.32155796 156.92786673 -73.20084717 155.86418773 -76.25 154.625 C-77.83554688 153.99464844 -77.83554688 153.99464844 -79.453125 153.3515625 C-82 152 -82 152 -83 149 C-82.10038681 145.51266899 -80.65571157 142.21324158 -79.3125 138.875 C-78.95994141 137.94300781 -78.60738281 137.01101562 -78.24414062 136.05078125 C-77.71530273 134.72240234 -77.71530273 134.72240234 -77.17578125 133.3671875 C-76.85520752 132.55362793 -76.53463379 131.74006836 -76.2043457 130.90185547 C-75 129 -75 129 -73.01416016 128.22216797 C-69.8332457 127.87130346 -66.71689197 128.1974059 -63.53515625 128.453125 C-59.86589664 127.79729431 -58.11433805 125.92249007 -56 123 C-54.0294779 119.02238848 -52.47852364 114.90372623 -50.91015625 110.75390625 C-50.19618791 108.91520202 -49.48221792 107.07649844 -48.76815701 105.23783016 C-47.77331877 102.66605995 -46.79084848 100.08963262 -45.80804443 97.51324463 C-44.33889582 93.66916286 -42.85365313 89.83128197 -41.36863613 85.99330807 C-40.20898933 82.99621035 -39.05311371 79.99782333 -37.90577698 76.99598694 C-35.18418407 69.90753344 -32.28490243 62.92848807 -29.22654724 55.98057556 C-27.22293517 51.11169081 -26.05602282 46.28627223 -27 41 C-29.71748951 37.45216647 -31.6816886 35.87658031 -36 35 C-33.68860831 26.38296958 -30.39204534 18.23311977 -27 10 C-20.27954125 12.19037174 -13.63275997 14.55765661 -7 17 C-6.82984375 16.443125 -6.6596875 15.88625 -6.484375 15.3125 C-4.76684063 9.90409391 -2.64657745 5.01937104 0 0 Z " fill="#FDFEFD" transform="translate(112,18)"/>
<path d="M0 0 C4.02201304 3.69799798 6.68513102 7.41635747 9.3125 12.1875 C9.67150391 12.81591797 10.03050781 13.44433594 10.40039062 14.09179688 C13 18.72157738 13 18.72157738 13 21 C12.01 21 11.02 21 10 21 C9.52949219 20.10796875 9.05898437 19.2159375 8.57421875 18.296875 C7.94548973 17.11448908 7.31657357 15.93220265 6.6875 14.75 C6.07261719 13.58984375 5.45773438 12.4296875 4.82421875 11.234375 C3.15829316 8.08090688 3.15829316 8.08090688 1.26953125 5.828125 C0 4 0 4 0 0 Z " fill="#97C676" transform="translate(231,53)"/>
<path d="M0 0 C0.66 0.33 1.32 0.66 2 1 C0.54955729 5.10958767 -1.51110752 8.43258745 -4 12 C-4.33 10.68 -4.66 9.36 -5 8 C-4.34 8 -3.68 8 -3 8 C-3 7.01 -3 6.02 -3 5 C-2.34 5 -1.68 5 -1 5 C-0.67 3.35 -0.34 1.7 0 0 Z " fill="#9FCA80" transform="translate(236,192)"/>
<path d="M0 0 C4.92307692 4.30769231 4.92307692 4.30769231 5.3125 7.8125 C5.209375 8.534375 5.10625 9.25625 5 10 C2.08772731 6.71195019 0.50298788 4.40114397 0 0 Z " fill="#8DC169" transform="translate(231,53)"/>
<path d="M0 0 C0.99 0.33 1.98 0.66 3 1 C0.47211993 3.79872437 -1.20411134 5.45773019 -5 6 C-3.63016497 2.83884224 -3.0109362 2.0072908 0 0 Z " fill="#94C473" transform="translate(201,230)"/>
<path d="M0 0 C0 0.66 0 1.32 0 2 C0.66 2.33 1.32 2.66 2 3 C2.33 3.66 2.66 4.32 3 5 C-0.68754757 4.50168276 -2.60490662 3.89932357 -5 1 C-2 0 -2 0 0 0 Z " fill="#9ECB7F" transform="translate(72,239)"/>
<path d="M0 0 C2.50298434 2.93828597 3.46930939 5.17902761 4 9 C2.68 8.67 1.36 8.34 0 8 C0 5.36 0 2.72 0 0 Z " fill="#A6CF89" transform="translate(245,77)"/>
</svg>
